# xmcd
# 
# Track frame offsets:
#     150
#     18002
#     36935
#     53363
#     66325
#     79893
#     97668
#     112434
#     131981
#     151173
#     165509
#     179950
#     198070
#     210022
#     224144
#     250869
#     267844
#     280959
# 
# Disc length: 4036
# 
# Revision: 2
# Processed by: cddbd v1.5.2PL0 Copyright (c) Steve Scherf et al.
# Submitted via: fre:ac v1.0.31
# 
DISCID=000fc212
DTITLE=70's - Outlaws and Armadillos Disc 2
DYEAR=1970
DGENRE=Country
TTITLE0=Armarillo Highway
TTITLE1=Gettin' By
TTITLE2=Too Much Fun
TTITLE3=Don't Ask Me Why
TTITLE4=Dallas
TTITLE5=Cosmic Cowboy, Pt. 1
TTITLE6=Sold American
TTITLE7=Leaving Louisiana in the Broad Daylight
TTITLE8=I Still Sing the Old Songs
TTITLE9=The Pilgrim, Chapter 33
TTITLE10=No Expectations
TTITLE11=Red Headed Stranger
TTITLE12=Satin Sheets
TTITLE13=Easy From Now On
TTITLE14=San Francisco Mabel Joy
TTITLE15=11 Months and 29 Days
TTITLE16=You Can Have My Husband
TTITLE17=Ain't Living Long Like This
EXTD=
EXTT0=
EXTT1=
EXTT2=
EXTT3=
EXTT4=
EXTT5=
EXTT6=
EXTT7=
EXTT8=
EXTT9=
EXTT10=
EXTT11=
EXTT12=
EXTT13=
EXTT14=
EXTT15=
EXTT16=
EXTT17=
PLAYORDER=
